<svg width="130" height="131" viewBox="0 0 130 131" fill="none" xmlns="http://www.w3.org/2000/svg">
<path d="M89.6409 65.5L126.599 28.5601C131.134 24.027 131.134 16.6775 126.599 12.1407L118.385 3.93104C113.85 -0.602012 106.497 -0.602012 101.958 3.93104L65 40.8709L28.0423 3.93104C23.5071 -0.602012 16.154 -0.602012 11.6151 3.93104L3.40142 12.1407C-1.13381 16.6738 -1.13381 24.0234 3.40142 28.5601L40.3591 65.5L3.40142 102.44C-1.13381 106.973 -1.13381 114.323 3.40142 118.859L11.6151 127.069C16.1503 131.602 23.5071 131.602 28.0423 127.069L65 90.1291L101.958 127.069C106.493 131.602 113.85 131.602 118.385 127.069L126.599 118.859C131.134 114.326 131.134 106.977 126.599 102.44L89.6409 65.5Z" fill="#313131"/>
</svg>
